<svg width="52" height="52" viewBox="0 0 52 52" fill="none" xmlns="http://www.w3.org/2000/svg">
<g id="Whatsapp">
<path id="Vector" d="M13.6784 46.3303C17.2534 48.4753 21.5435 49.667 25.8335 49.667C38.9419 49.667 49.667 38.9419 49.667 25.8335C49.667 12.7251 38.9419 2 25.8335 2C12.7251 2 2 12.7251 2 25.8335C2 30.1235 3.19167 34.1752 5.09835 37.7502L3.04867 45.6296C2.94293 46.0364 2.94663 46.4639 3.05939 46.8687C3.17216 47.2736 3.38998 47.6415 3.69078 47.935C3.99157 48.2285 4.36464 48.4373 4.77215 48.5402C5.17966 48.643 5.60712 48.6362 6.01118 48.5206L13.6784 46.3303Z" stroke="white" stroke-width="3.7" stroke-miterlimit="10" stroke-linecap="round" stroke-linejoin="round"/>
<path id="Vector_2" d="M36.5585 32.6212C36.5585 33.0074 36.4727 33.4054 36.2892 33.7915C36.102 34.1904 35.8562 34.5591 35.5599 34.8854C35.0332 35.4646 34.454 35.8817 33.7962 36.151C33.1527 36.4203 32.4544 36.5585 31.7037 36.5585C30.6073 36.5585 29.4371 36.3011 28.2001 35.7768C26.8924 35.2099 25.6532 34.4967 24.5059 33.6509C23.2582 32.7394 22.0807 31.7356 20.9834 30.6478C19.8976 29.5565 18.8962 28.3845 17.9875 27.1419C17.1524 26.0047 16.4458 24.7786 15.8806 23.4859C15.3658 22.2584 15.1084 21.0906 15.1084 19.9776C15.1084 19.2483 15.2371 18.5523 15.4945 17.9088C15.7519 17.2534 16.1618 16.6528 16.7315 16.1166C17.4179 15.4397 18.1686 15.1084 18.9647 15.1084C19.265 15.1084 19.5653 15.1727 19.8346 15.3014C20.1134 15.4302 20.3589 15.6232 20.5544 15.9021L23.0473 19.4103C23.238 19.6773 23.381 19.9251 23.4763 20.1611C23.5717 20.3851 23.6265 20.6116 23.6265 20.8141C23.6234 21.0845 23.545 21.3486 23.4001 21.5768C23.2346 21.8558 23.0326 22.1115 22.7995 22.3371L21.982 23.1856C21.9251 23.2412 21.8805 23.3081 21.8509 23.382C21.8214 23.4558 21.8076 23.5351 21.8104 23.6146C21.8104 23.698 21.8223 23.7743 21.8437 23.8601C21.8747 23.9459 21.9081 24.0102 21.9295 24.0746C22.1202 24.4297 22.4539 24.8897 22.9282 25.4474C23.412 26.0051 23.9268 26.5747 24.4845 27.1419C25.066 27.7115 25.6237 28.2359 26.1934 28.7197C26.7511 29.1892 27.2134 29.511 27.5781 29.704L27.7735 29.7922C27.8591 29.8228 27.9496 29.8373 28.0405 29.8351C28.1227 29.8369 28.2043 29.8215 28.2803 29.7899C28.3562 29.7583 28.4247 29.7112 28.4814 29.6516L29.2965 28.846C29.5658 28.5791 29.8232 28.3765 30.0711 28.2454C30.299 28.1002 30.5634 28.0225 30.8337 28.0214C31.0593 28.0247 31.2821 28.0725 31.4892 28.162C31.7251 28.2573 31.973 28.3956 32.2399 28.5791L35.7959 31.1007C36.0535 31.2683 36.2585 31.5055 36.3869 31.7847C36.4984 32.0496 36.5567 32.3339 36.5585 32.6212Z" stroke="white" stroke-width="3.7" stroke-miterlimit="10"/>
</g>
</svg>
