<svg width="48" height="48" viewBox="0 0 48 48" fill="none" xmlns="http://www.w3.org/2000/svg">
<g id="whatsapp" clip-path="url(#clip0_353_627)">
<path id="Vector" d="M1.10645 47.64C0.838941 47.64 0.578701 47.5342 0.385702 47.3391C0.131277 47.0817 0.0331416 46.7081 0.128733 46.3588L3.22581 35.0492C1.29763 31.5625 0.281024 27.6182 0.282478 23.6143C0.28793 10.5932 10.8844 0 23.9044 0C30.2195 0.00254426 36.1534 2.46247 40.6135 6.92581C45.0728 11.3895 47.5277 17.3231 47.5259 23.6332C47.52 36.6547 36.9236 47.2485 23.9044 47.2485C23.9044 47.2485 23.8945 47.2485 23.8942 47.2485C20.0913 47.2471 16.321 46.3203 12.9641 44.5647L1.36342 47.6069C1.27837 47.6291 1.19186 47.64 1.10645 47.64V47.64Z" fill="white"/>
<path id="Vector_2" d="M1.10645 46.6262L4.31366 34.9143C2.33532 31.4864 1.29472 27.5981 1.29617 23.6146C1.30126 11.1525 11.4427 1.01367 23.9044 1.01367C29.9517 1.01622 35.628 3.37001 39.8965 7.64215C44.1647 11.9143 46.5145 17.5931 46.5123 23.6327C46.5068 36.0944 36.364 46.2347 23.9044 46.2347C23.9037 46.2347 23.9048 46.2347 23.9044 46.2347H23.8946C20.1109 46.2332 16.3934 45.2842 13.0913 43.4833L1.10645 46.6262ZM13.6463 39.3918L14.3329 39.7985C17.2174 41.5104 20.5246 42.4158 23.8971 42.4176H23.9044C34.261 42.4176 42.6905 33.9896 42.6948 23.6313C42.6966 18.6115 40.7441 13.8912 37.1963 10.3405C33.6482 6.78983 28.9308 4.83331 23.9113 4.83113C13.5464 4.83113 5.11728 13.258 5.11328 23.616C5.11183 27.1656 6.10481 30.6221 7.98611 33.6134L8.43317 34.3244L6.53443 41.2563L13.6463 39.3918Z" fill="white"/>
<path id="Vector_3" d="M1.89258 45.8374L4.98893 34.5304C3.07856 31.2214 2.07431 27.4672 2.0754 23.6221C2.08013 11.5914 11.8708 1.80371 23.9003 1.80371C29.739 1.80626 35.219 4.07863 39.3388 8.20286C43.4598 12.3271 45.7278 17.8092 45.7256 23.6392C45.7205 35.6702 35.9295 45.4591 23.9014 45.4591C23.9003 45.4591 23.9018 45.4591 23.9014 45.4591H23.8916C20.2392 45.4576 16.6499 44.5409 13.4624 42.8036L1.89258 45.8374Z" fill="black"/>
<g id="Group">
<path id="Vector_4" d="M1.10645 46.6262L4.31366 34.9143C2.33532 31.4864 1.29472 27.5981 1.29617 23.6146C1.30126 11.1525 11.4427 1.01367 23.9044 1.01367C29.9517 1.01622 35.628 3.37001 39.8965 7.64215C44.1647 11.9143 46.5145 17.5931 46.5123 23.6327C46.5068 36.0944 36.364 46.2347 23.9044 46.2347C23.9037 46.2347 23.9048 46.2347 23.9044 46.2347H23.8946C20.1109 46.2332 16.3934 45.2842 13.0913 43.4833L1.10645 46.6262ZM13.6463 39.3918L14.3329 39.7985C17.2174 41.5104 20.5246 42.4158 23.8971 42.4176H23.9044C34.261 42.4176 42.6905 33.9896 42.6948 23.6313C42.6966 18.6115 40.7441 13.8912 37.1963 10.3405C33.6482 6.78983 28.9308 4.83331 23.9113 4.83113C13.5464 4.83113 5.11728 13.258 5.11328 23.616C5.11183 27.1656 6.10481 30.6221 7.98611 33.6134L8.43317 34.3244L6.53443 41.2563L13.6463 39.3918Z" fill="white"/>
<path id="Vector_5" fill-rule="evenodd" clip-rule="evenodd" d="M18.2536 14.1661C17.8305 13.2255 17.3849 13.2066 16.9822 13.1902C16.6529 13.176 16.276 13.1768 15.8998 13.1768C15.5233 13.1768 14.9112 13.3185 14.3936 13.8837C13.8757 14.4489 12.416 15.8155 12.416 18.595C12.416 21.3747 14.4405 24.0604 14.7229 24.4377C15.0053 24.8146 18.6309 30.7006 24.3725 32.965C29.1444 34.847 30.1152 34.4726 31.1511 34.3785C32.187 34.2843 34.4932 33.0118 34.9638 31.6928C35.4349 30.3738 35.4349 29.2434 35.2935 29.0068C35.1521 28.7716 34.7756 28.6303 34.2107 28.3478C33.6459 28.0654 30.8687 26.6984 30.3508 26.5102C29.8328 26.3215 29.4563 26.2277 29.0797 26.7933C28.7028 27.3581 27.6211 28.6303 27.2915 29.0068C26.9618 29.3844 26.6322 29.4317 26.0673 29.1489C25.5025 28.8658 23.683 28.2697 21.5248 26.3451C19.8456 24.848 18.7116 22.9987 18.3819 22.4332C18.0526 21.8683 18.3765 21.5892 18.6302 21.2806C19.087 20.7249 19.8536 19.7257 20.0418 19.3491C20.2301 18.9719 20.136 18.6422 19.995 18.3594C19.8536 18.077 18.7555 15.2834 18.2536 14.1661V14.1661Z" fill="white"/>
</g>
</g>
<defs>
<clipPath id="clip0_353_627">
<rect width="47.64" height="47.64" fill="white"/>
</clipPath>
</defs>
</svg>
