<svg width="191" height="126" viewBox="0 0 191 126" fill="none" xmlns="http://www.w3.org/2000/svg">
<path id="Vector 2" d="M19 3V0.5H16.5V3H19ZM17.2322 124.768C18.2085 125.744 19.7915 125.744 20.7678 124.768L36.6777 108.858C37.654 107.882 37.654 106.299 36.6777 105.322C35.7014 104.346 34.1184 104.346 33.1421 105.322L19 119.464L4.85786 105.322C3.88155 104.346 2.29864 104.346 1.32233 105.322C0.34602 106.299 0.34602 107.882 1.32233 108.858L17.2322 124.768ZM191 0.5H19V5.5H191V0.5ZM16.5 3V123H21.5V3H16.5Z" fill="#DA1972"/>
</svg>
