<svg width="198" height="126" viewBox="0 0 198 126" fill="none" xmlns="http://www.w3.org/2000/svg">
<path id="Vector 3" d="M179 3V0.5H181.5V3H179ZM180.768 124.768C179.791 125.744 178.209 125.744 177.232 124.768L161.322 108.858C160.346 107.882 160.346 106.299 161.322 105.322C162.299 104.346 163.882 104.346 164.858 105.322L179 119.464L193.142 105.322C194.118 104.346 195.701 104.346 196.678 105.322C197.654 106.299 197.654 107.882 196.678 108.858L180.768 124.768ZM0 0.5H179V5.5H0V0.5ZM181.5 3V123H176.5V3H181.5Z" fill="#DA1972"/>
</svg>
