<svg width="151" height="151" viewBox="0 0 151 151" fill="none" xmlns="http://www.w3.org/2000/svg">
<g id="001-certificate" clip-path="url(#clip0_265_225)">
<g id="Group">
<path id="Vector" d="M1.76953 1.59264C1.29766 1.76959 0.707813 2.24147 0.471875 2.59538C0.235938 2.94928 0 26.2481 0 54.3247C0 101.158 0.0589844 105.523 1.00273 106.231C1.76953 106.88 6.66523 107.116 25.0094 107.352C45.0641 107.588 48.0723 107.765 48.2492 108.531C48.3082 109.062 45.182 113.25 41.2891 117.91C34.3879 126.168 33.1492 128.468 34.9188 129.53C35.3316 129.825 39.1066 130.827 43.3535 131.889L51.0215 133.777L54.2656 141.268C57.4508 148.582 58.6305 150.174 60.282 149.525C60.6949 149.349 64.234 145.397 68.127 140.678C72.0199 136.018 75.323 132.184 75.5 132.184C75.677 132.184 78.9801 136.018 82.873 140.678C86.766 145.397 90.3051 149.349 90.718 149.525C92.3695 150.174 93.5492 148.582 96.7344 141.268L99.9785 133.777L107.646 131.889C111.893 130.827 115.668 129.825 116.081 129.53C117.851 128.468 116.612 126.168 109.711 117.91C105.818 113.25 102.692 109.062 102.751 108.531C102.928 107.765 105.936 107.588 125.991 107.352C144.335 107.116 149.23 106.88 149.997 106.231C150.941 105.523 151 101.158 151 54.3247C151 23.1809 150.764 2.8903 150.41 2.35944C149.938 1.59264 140.973 1.47467 76.2668 1.3567C35.8035 1.29772 2.24141 1.41569 1.76953 1.59264ZM145.691 54.2657V102.043L124.339 101.925L103.046 101.748L102.279 98.386C100.45 90.3051 94.9648 83.463 87.3559 79.7469C82.932 77.5645 82.8141 77.5645 75.5 77.5645C68.1859 77.5645 68.068 77.5645 63.6441 79.7469C56.1531 83.404 50.7266 90.0102 48.898 97.6192C48.5441 99.2118 48.1313 100.922 48.0133 101.335C47.8363 101.866 43.0586 102.043 26.543 102.043H5.30859V54.2657V6.48834H75.5H145.691V54.2657ZM81.1035 82.8141C82.7551 83.227 84.9375 84.0528 86.0582 84.6426C89.6563 86.4712 94.1391 91.2489 95.9086 95.1419C97.4422 98.386 97.6191 99.4477 97.6191 104.697C97.6191 109.829 97.4422 111.009 96.0855 113.84C92.8414 120.682 86.5891 125.46 79.216 126.816C69.4246 128.527 59.3383 123.159 54.9145 113.84C53.5578 111.009 53.3809 109.829 53.3809 104.697C53.3809 99.4477 53.5578 98.386 55.0914 95.1419C56.8609 91.2489 61.2848 86.4712 64.9418 84.6426C69.7785 82.1063 75.9129 81.3985 81.1035 82.8141ZM51.2574 117.91C53.2629 121.862 58.0406 126.522 62.4645 128.822C64.7059 130.002 66.9473 130.945 67.4191 130.945C67.95 130.945 68.4809 131.181 68.6578 131.417C69.0117 131.948 61.1668 141.681 60.459 141.681C60.1641 141.622 58.8664 139.144 57.5688 136.136C56.2121 133.128 54.9145 130.356 54.6785 129.943C54.4426 129.589 51.6703 128.704 48.4852 127.996C45.359 127.288 42.4098 126.463 41.9969 126.286C41.407 125.932 42.4098 124.398 45.477 120.741C47.8953 117.91 49.9008 115.609 49.9598 115.609C50.0188 115.609 50.6086 116.612 51.2574 117.91ZM106.172 121.449C108.885 124.693 109.652 125.932 109.062 126.227C108.59 126.463 105.641 127.288 102.515 127.996C99.3297 128.704 96.5574 129.589 96.3215 129.943C96.0855 130.356 94.7879 133.128 93.4313 136.136C92.1336 139.144 90.8359 141.622 90.541 141.681C89.8332 141.681 81.9883 131.889 82.4602 131.535C82.6961 131.358 83.9348 130.827 85.2324 130.415C90.718 128.527 97.0883 122.982 99.8016 117.733C100.745 115.845 101.099 115.609 101.689 116.258C102.102 116.73 104.107 119.031 106.172 121.449Z" fill="#A71351"/>
<path id="Vector_2" d="M11.325 12.1509C10.1453 12.9767 10.0273 13.5075 10.0273 18.6392V24.2427L12.5637 24.0657L15.041 23.8888L15.218 20.1728L15.3949 16.5157H18.875H22.4141V13.8614V11.2071H17.5184C14.0383 11.2071 12.2688 11.5021 11.325 12.1509Z" fill="#A71351"/>
<path id="Vector_3" d="M128.586 13.8614V16.5157H132.125H135.605L135.782 20.1728L135.959 23.8888L138.495 24.0657L140.973 24.2427V18.6392C140.973 11.561 140.619 11.2071 133.482 11.2071H128.586V13.8614Z" fill="#A71351"/>
<path id="Vector_4" d="M45.418 31.5566V34.2109H75.5H105.582V31.5566V28.9023H75.5H45.418V31.5566Z" fill="#A71351"/>
<path id="Vector_5" d="M30.082 46.5977V48.957H75.5H120.918V46.5977V44.2383H75.5H30.082V46.5977Z" fill="#A71351"/>
<path id="Vector_6" d="M10.0273 89.8334C10.0273 96.7936 10.1453 96.9705 17.2234 97.2064L22.4141 97.4424V94.7291V92.0158H18.875H15.3949L15.218 88.2998L15.041 84.6428L12.5637 84.4658L10.0273 84.2889V89.8334Z" fill="#A71351"/>
<path id="Vector_7" d="M136.077 84.7607C135.841 84.9377 135.664 86.7072 135.664 88.5947V92.0158H132.125H128.586V94.7291V97.4424L133.777 97.2064C140.796 96.9705 140.973 96.7936 140.973 89.8924V84.3479H138.731C137.493 84.3479 136.254 84.5248 136.077 84.7607Z" fill="#A71351"/>
<path id="Vector_8" d="M71.9609 87.5329C67.832 88.4176 65.7086 89.5973 62.9953 92.4286C59.7511 95.7907 58.1586 99.7426 58.1586 104.697C58.0996 112.188 62.3465 118.264 69.4246 120.918C77.8004 124.044 87.2968 120.269 91.2488 112.247C96.0855 102.22 89.8922 89.3614 79.334 87.5919C78.0363 87.3559 76.5617 87.12 76.0898 87.002C75.6179 86.884 73.7304 87.12 71.9609 87.5329ZM80.5136 93.1364C89.8332 97.3243 90.364 110.596 81.3984 115.55C71.725 120.918 60.164 111.186 63.7031 100.568C65.2957 95.7317 70.4273 92.0157 75.5 92.0157C76.9746 92.0157 79.216 92.5465 80.5136 93.1364Z" fill="#A71351"/>
</g>
</g>
<defs>
<clipPath id="clip0_265_225">
<rect width="151" height="151" fill="white"/>
</clipPath>
</defs>
</svg>
