<svg width="136" height="136" viewBox="0 0 136 136" fill="none" xmlns="http://www.w3.org/2000/svg">
<g id="002-training">
<g id="Group">
<path id="Vector" d="M45.7937 0.637722C45.3156 1.11585 45.1562 5.8971 45.1562 18.8065V36.3377L43.1906 34.4252C39.8437 31.1315 38.4094 30.8127 27.7312 30.8127C18.6469 30.8127 18.1687 30.8658 15.5656 32.194C12.1656 33.8408 9.66875 37.4002 7.65 43.3502C6.48125 46.9096 6.21562 48.769 6.00312 55.2502C5.68437 64.2815 6.21562 66.5127 8.97812 68.3721C9.9875 69.0627 11.5812 69.594 12.5375 69.594C14.2906 69.594 14.3437 69.7002 14.3437 71.6127C14.3437 72.7283 14.6094 73.8971 14.9812 74.269C15.4594 74.7471 19.125 74.9065 28.2094 74.9065C43.775 74.9065 42.5 75.7565 42.5 65.0252V57.4815L48.3969 60.669C53.8687 63.6971 54.4531 63.8565 57.0031 63.5908C59.3937 63.3783 59.9781 63.0596 61.6781 61.1471L63.6437 58.969H94.9344C118.575 58.969 126.384 58.8096 126.863 58.3315C127.713 57.4815 127.766 2.60335 126.969 1.0096C126.438 0.000221734 125.428 0.000221734 86.4344 0.000221734C56.0469 0.000221734 46.2719 0.159597 45.7937 0.637722ZM123.144 29.5908L123.25 54.719H93.3938L63.4844 54.6658L62.5812 52.7533L61.6781 50.7877L68.0531 41.2783C71.6125 36.0721 74.375 31.7158 74.2687 31.6627C74.2156 31.6096 73.3656 31.0252 72.4625 30.3877L70.8156 29.2721L64.4937 38.7815C60.9875 44.0408 57.9594 48.344 57.6406 48.344C57.375 48.344 55.3562 47.3877 53.2844 46.219L49.4062 44.0408V24.1721V4.25022L86.2219 4.35647L122.984 4.51585L123.144 29.5908ZM38.8875 36.3908C39.6312 36.9752 41.7031 39.7377 43.5094 42.5533L46.75 47.6002L52.3281 50.6815C55.3562 52.3283 58.225 54.1877 58.65 54.7721C59.925 56.6315 58.4906 59.5002 56.2594 59.5002C55.7281 59.5002 52.4344 57.9065 48.9281 55.994C43.4562 53.019 42.5 52.3283 42.5 51.2127C42.5 49.3533 40.6406 47.6533 39.3656 48.2908C38.8344 48.6096 38.25 49.2471 38.0375 49.7252C37.8781 50.1502 37.7187 55.0908 37.7187 60.6158V70.6565H28.1562H18.5937V59.3408C18.5937 53.1783 18.3812 47.7596 18.1156 47.3877C17.85 46.9627 17 46.7502 16.15 46.8565L14.6094 47.0158L14.5031 54.719C14.3437 63.4315 14.1844 64.5471 12.9625 65.0252C10.9969 65.769 10.625 64.494 10.625 56.3127C10.625 47.494 11.4219 43.7221 14.3437 39.1533C16.7344 35.3283 17.7969 35.0627 28.4219 35.2221C36.4969 35.3283 37.6125 35.4346 38.8875 36.3908Z" fill="#A71351"/>
<path id="Vector_2" d="M111.562 30.5469V49.4062H113.687H115.812V30.5469V11.6875H113.687H111.562V30.5469Z" fill="#A71351"/>
<path id="Vector_3" d="M82.3437 38.25V49.4062H84.7344H87.125V38.25V27.0937H84.7344H82.3437V38.25Z" fill="#A71351"/>
<path id="Vector_4" d="M100.247 28.5281C100.034 28.6875 99.875 33.4687 99.875 39.1531V49.4062H102H104.125V38.7812V28.1562H102.372C101.362 28.1562 100.406 28.3156 100.247 28.5281Z" fill="#A71351"/>
<path id="Vector_5" d="M91.375 42.2344V49.4062H93.5H95.625V42.2344V35.0625H93.5H91.375V42.2344Z" fill="#A71351"/>
<path id="Vector_6" d="M22.4719 4.99387C13.4406 9.24387 13.3875 22.2595 22.3656 26.7751C31.6625 31.397 41.9687 23.4282 39.7906 13.3345C38.6219 7.70324 33.6281 3.71887 27.8906 3.71887C26.1906 3.71887 24.225 4.19699 22.4719 4.99387ZM31.3437 8.92512C37.0281 11.7407 37.0281 20.1345 31.3437 22.9501C26.1375 25.6064 20.1875 21.8345 20.1875 15.9376C20.1875 11.6345 23.7469 7.96887 27.8906 7.96887C28.7937 7.96887 30.3344 8.39387 31.3437 8.92512Z" fill="#A71351"/>
<path id="Vector_7" d="M20.2937 78.7312C16.0969 79.4219 12.6437 82.875 11.6875 87.2312C10.625 91.9594 12.4844 96.475 16.5219 99.1844C18.4875 100.459 19.3375 100.672 22.5781 100.672C25.8187 100.672 26.6687 100.459 28.5812 99.2375C30.9187 97.6969 33.15 94.35 33.7344 91.4812C34.2656 88.9844 33.15 84.9469 31.2375 82.6625C28.5281 79.3687 24.65 77.9344 20.2937 78.7312ZM26.0312 83.725C28.1031 84.9469 29.2187 87.1781 29.2187 89.9406C29.2187 96.1562 21.3562 98.8125 17.3187 93.9781C14.8219 91.0562 15.725 85.85 19.0719 83.7781C20.8781 82.6625 24.1187 82.6625 26.0312 83.725Z" fill="#A71351"/>
<path id="Vector_8" d="M111.563 78.625C105.666 79.6875 101.097 85.9563 102.266 91.4813C102.85 94.35 105.081 97.6969 107.419 99.2375C109.331 100.459 110.181 100.672 113.422 100.672C116.663 100.672 117.513 100.459 119.478 99.1844C126.331 94.6156 126.384 85.1063 119.531 80.2188C117.672 78.8906 114.059 78.2 111.563 78.625ZM116.875 83.725C118.947 84.9469 120.063 87.1781 120.063 89.9406C120.063 96.1563 112.2 98.8125 108.163 93.9781C105.666 91.0563 106.569 85.85 109.916 83.7781C111.722 82.6625 114.963 82.6625 116.875 83.725Z" fill="#A71351"/>
<path id="Vector_9" d="M62.6344 79.8468C56.3656 83.1937 54.9312 91.6405 59.6594 97.0593C64.1219 102.159 71.8781 102.159 76.3406 97.0593C78.5187 94.6155 79.3156 91.9062 79.05 88.3999C78.5719 82.7155 73.95 78.6249 68 78.6249C65.875 78.6249 64.2812 78.9968 62.6344 79.8468ZM71.2406 83.6718C73.2062 84.7343 74.9062 87.3905 74.9062 89.5155C74.9062 93.0749 71.4 96.6874 68 96.6874C64.6531 96.6874 61.0937 93.0749 61.0937 89.6218C61.0937 84.6812 66.725 81.3874 71.2406 83.6718Z" fill="#A71351"/>
<path id="Vector_10" d="M16.2031 105.4C10.2531 107.312 5.57813 111.084 3.71875 115.441C2.65625 117.778 2.44375 119.425 2.23125 126.225C2.01875 133.237 2.07188 134.3 2.86875 135.097C3.71875 135.894 5.63125 136 22.8437 136C41.1719 136 41.9687 135.947 42.5 134.991C43.4031 133.291 43.1906 120.169 42.1812 116.875C41.0125 112.944 36.125 108.003 31.6094 106.25C27.7312 104.709 19.6031 104.284 16.2031 105.4ZM29.2719 110.181C33.4156 111.881 35.3812 113.369 36.975 116.184C38.25 118.309 38.4094 119.266 38.675 124.897L38.9406 131.219H22.7906H6.5875L6.74688 125.747C6.85313 122.772 7.06563 119.531 7.225 118.575C7.49063 116.769 10.8906 112.572 12.9625 111.456C18.1688 108.694 24.4375 108.162 29.2719 110.181Z" fill="#A71351"/>
<path id="Vector_11" d="M60.2969 105.878C54.2406 108.163 50.3625 111.775 48.5562 116.716C48.0781 118.044 47.8656 121.391 47.8125 126.809C47.8125 134.3 47.8656 134.938 48.8219 135.469C49.5125 135.788 56.6312 136 68.425 136C84.0437 136 87.0719 135.894 87.6562 135.203C88.0812 134.672 88.2406 131.963 88.0812 125.534C87.9219 116.928 87.8687 116.503 86.4875 114.166C84.575 110.925 81.8125 108.588 77.5625 106.569C74.5344 105.134 73.4187 104.922 68.7969 104.816C64.3344 104.656 63.0062 104.816 60.2969 105.878ZM75.4906 110.394C78.7844 111.828 81.7594 114.538 82.9281 117.141C83.6719 118.788 83.9375 120.594 83.9375 125.216V131.219H67.9469H51.9562L52.1156 124.95C52.275 119.956 52.5406 118.309 53.4437 116.663C54.825 113.953 57.4281 111.881 61.4125 110.181C64.0687 109.066 65.1844 108.906 68.7969 109.066C71.5062 109.225 73.95 109.703 75.4906 110.394Z" fill="#A71351"/>
<path id="Vector_12" d="M106.516 105.612C100.619 107.631 96.475 111.084 94.4563 115.653C93.7125 117.406 93.3938 119.744 93.1281 125.906C92.8094 133.131 92.9156 133.981 93.7656 134.937C94.6688 135.947 95.4125 136 113.688 136C127.659 136 132.759 135.841 133.237 135.362C134.194 134.406 134.087 120.434 133.078 117.034C131.591 112.041 127.022 107.791 120.966 105.772C116.875 104.337 110.288 104.284 106.516 105.612ZM119.744 109.969C123.728 111.509 126.756 113.794 128.137 116.45C129.094 118.309 129.306 119.903 129.519 125.003L129.731 131.219H113.688H97.6438L97.8563 124.419C98.0156 117.884 98.0688 117.512 99.5031 115.653C104.019 109.703 112.572 107.312 119.744 109.969Z" fill="#A71351"/>
</g>
</g>
</svg>
