<svg width="165" height="165" viewBox="0 0 165 165" fill="none" xmlns="http://www.w3.org/2000/svg">
<g id="manicure">
<g id="Group">
<path id="Vector" d="M116.338 10.6668C115.178 11.1502 114.565 11.7625 112.148 14.9852C109.055 19.1424 104.446 24.1053 99.709 28.3592C94.2949 33.2254 94.4238 33.0965 93.9082 34.3533C93.2959 35.8358 93.3281 37.3504 94.0371 38.7361L94.6494 39.8963L91.2012 43.3445L87.7207 46.7928L84.7236 43.7635C80.8242 39.8641 78.8906 38.8328 75.4102 38.8328C73.3154 38.8328 72.7031 38.9617 70.7695 39.9285C67.4502 41.5721 62.8418 46.3094 62.8418 48.1141C62.8418 49.0164 64.582 50.5955 65.6133 50.5955C66.29 50.5955 66.9346 50.0799 68.4492 48.4363C70.9307 45.7615 73.7988 43.8279 75.3457 43.8279C76.8926 43.8279 79.084 45.2781 81.6621 48.0496C82.8223 49.2742 83.7891 50.4022 83.7891 50.5311C83.7891 50.66 82.0488 52.4969 79.9219 54.6238C76.1514 58.3944 75.9902 58.491 71.4785 60.7469C65.7744 63.5506 65.0332 64.324 64.8398 67.6756C64.7109 69.6414 64.8076 70.157 65.71 72.0262C68.1592 77.2791 74.1855 81.0819 78.5361 80.1795C80.8887 79.6639 82.3389 77.9559 84.4336 73.0574C85.9482 69.5447 86.4316 68.7069 88.0107 67.16L89.8477 65.3231L90.1377 67.2244C90.2666 68.2879 90.3955 74.0565 90.3955 80.1151V91.1043L89.042 93.8113C86.335 99.3221 81.3721 102.48 75.5713 102.48C69.0938 102.448 62.8418 97.8074 60.9082 91.5555C60.3281 89.7186 60.2637 88.5906 60.2637 79.9217C60.2637 68.2235 60.4248 66.8055 62.9063 58.1043C63.3574 56.4608 62.9063 55.3651 61.5527 54.785C58.1689 53.3992 55.8486 59.8768 55.1397 72.6707C54.9785 75.4422 54.9141 77.9881 55.0107 78.3104C55.1074 78.6971 54.334 80.1473 52.8838 82.3387C49.8223 86.9793 48.1787 91.3299 47.3731 96.8406C46.9219 100.16 46.9541 152.174 47.4053 153.205C48.082 154.687 50.5957 155.042 51.627 153.785C51.9492 153.398 52.0781 147.404 52.2393 124.91C52.4326 94.8748 52.3682 95.9061 54.0439 91.201L54.9141 88.8162L55.4941 91.201C56.4609 95.2615 58.3945 98.7098 61.1982 101.513C67.5469 107.798 76.377 109.377 84.208 105.574C89.8154 102.867 93.6504 98.033 95.1973 91.7811L95.9062 88.8485L96.9053 91.8777C97.9687 95.0037 98.6133 98.7742 98.6133 101.546C98.6133 104.092 100.192 105.316 102.287 104.382C103.576 103.769 103.898 102.545 103.641 99.032C103.189 92.9412 100.644 85.9481 97.2598 81.3719L95.8418 79.4383L95.7773 75.2488C95.7129 70.8338 95.3906 67.5789 94.5527 63.3572L94.0371 60.8113L99.3545 55.494L104.64 50.2088L105.864 50.5955C107.347 51.0789 109.506 50.8856 110.634 50.1121C111.117 49.7899 112.31 48.4041 113.276 47.0506C115.822 43.4412 119.786 39.0906 124.749 34.4822C132.161 27.5535 132.387 27.3279 132.612 25.6844C132.741 24.8465 132.677 23.7508 132.483 23.1385C132.064 21.8494 121.462 11.1502 120.108 10.6346C118.98 10.2479 117.401 10.2479 116.338 10.6668ZM122.944 20.3026L127.456 24.8465L124.556 27.4569C118.11 33.2576 111.601 40.283 109.087 44.0535C108.604 44.827 108.12 45.4393 107.991 45.4393C107.895 45.4393 105.735 43.3768 103.189 40.8309L98.6133 36.2225L100.837 34.3533C104.188 31.5819 112.245 23.1707 115.371 19.2391C116.854 17.3377 118.175 15.7908 118.271 15.7908C118.368 15.7908 120.463 17.8211 122.944 20.3026ZM99.8379 45.2137L101.191 46.5672L92.7158 55.0428L84.2725 63.4861L82.8223 62.036L81.3721 60.5858L89.751 52.2069C94.3594 47.5985 98.1943 43.8279 98.291 43.8279C98.3877 43.8279 99.0967 44.4402 99.8379 45.2137ZM79.1484 65.7742L81.1465 67.7401L79.6963 71.0272C77.9883 74.8944 77.8271 75.0877 76.7314 75.0877C74.0566 75.0877 69.9316 70.8338 69.9316 68.0623C69.9316 67.2244 70.1895 67.0311 73.3799 65.4842C75.2813 64.5496 76.8926 63.8084 76.9893 63.8084C77.0859 63.8084 78.0527 64.7108 79.1484 65.7742Z" fill="#A71351"/>
<path id="Vector_2" d="M31.7754 24.5886C31.4854 24.8141 30.0352 27.0055 28.585 29.4548L25.9424 33.902L21.4307 36.2546C18.9492 37.5436 16.6611 38.8649 16.3711 39.1872C16.0488 39.5095 15.791 40.2184 15.791 40.7985C15.791 42.1198 16.5645 42.7643 21.4307 45.6003C23.4609 46.7927 25.4268 48.1462 25.749 48.6296C26.0713 49.0807 27.2314 51.2399 28.3271 53.3991C30.5186 57.8141 31.292 58.5876 32.9678 58.1364C33.9668 57.8464 35.3525 55.8161 39.0586 49.3063C39.4453 48.5973 40.6699 47.8239 44.0537 46.1481C46.5029 44.8913 48.791 43.6022 49.1133 43.2155C50.0156 42.2165 49.9189 40.6696 48.9199 39.7995C48.4688 39.4128 46.2773 38.027 43.9893 36.7057L39.8965 34.321L37.5117 29.5837C36.2227 26.9733 34.8691 24.6852 34.5146 24.4919C33.6445 24.0407 32.4844 24.0729 31.7754 24.5886ZM33.999 33.9987C35.4814 37.318 36.2227 38.1882 38.9619 39.7673C40.4121 40.6052 41.5723 41.3141 41.5723 41.3786C41.5723 41.4753 40.3799 42.1843 38.8975 42.9899C35.8359 44.6657 35.6748 44.7946 33.8379 47.985L32.4521 50.402L30.9375 47.3405L29.3906 44.3112L26.6191 42.6999C25.1045 41.7975 23.8477 40.9919 23.8477 40.8952C23.8477 40.7985 24.8789 40.2184 26.168 39.6061C29.3262 38.0915 29.7773 37.6725 31.4531 34.7721C32.2588 33.3864 33 32.2263 33.0645 32.2263C33.1611 32.2263 33.5801 33.0319 33.999 33.9987Z" fill="#A71351"/>
<path id="Vector_3" d="M131.517 70.9951C131.098 71.2207 129.68 73.2509 128.133 75.8935L125.49 80.4052L121.075 82.6611C115.983 85.2714 115.274 85.8838 115.307 87.3984C115.339 88.7519 115.822 89.1709 120.946 92.1357L125.071 94.4882L127.456 99.29C128.777 101.9 130.131 104.221 130.485 104.414C131.517 104.962 132.741 104.801 133.515 103.995C133.901 103.608 135.287 101.449 136.576 99.1933L138.929 95.0683L143.666 92.5869C146.276 91.2334 148.564 89.8798 148.79 89.622C149.306 88.9453 149.306 87.2695 148.822 86.625C148.597 86.3349 146.405 84.917 143.988 83.499L139.573 80.8886L137.382 76.6347C134.417 70.8662 133.482 69.9638 131.517 70.9951ZM138.413 86.206C139.895 87.1084 141.152 87.914 141.152 88.0107C141.152 88.1074 140.121 88.6875 138.832 89.2998C135.674 90.8144 135.223 91.2334 133.547 94.1338L132.064 96.7119L130.389 93.7148C128.81 90.8144 128.648 90.6533 126.231 89.2353C124.846 88.3974 123.686 87.624 123.653 87.5273C123.621 87.3984 124.749 86.6894 126.167 85.916C128.874 84.4336 129.905 83.3701 131.613 80.2119L132.516 78.5039L134.095 81.5654L135.674 84.5947L138.413 86.206Z" fill="#A71351"/>
<path id="Vector_4" d="M99.4189 110.376L98.6133 111.149V132.129V153.108L99.4189 153.882C100.644 155.138 102.706 154.752 103.415 153.173C103.673 152.625 103.77 146.276 103.77 132.096C103.77 114.92 103.705 111.665 103.286 110.891C102.513 109.344 100.676 109.087 99.4189 110.376Z" fill="#A71351"/>
</g>
</g>
</svg>
